{"title":"El Marginal S02E06 WEB 1080p H264 AAC","magnet":"magnet:?xt=urn:btih:f9230ef684dc344cdf2c8352a53866f4c090726a&dn=El+Marginal+S02E06+WEB+1080p+H264+AAC&tr=udp%3A%2F%2Ftracker.leechers-paradise.org%3A6969&tr=udp%3A%2F%2Fzer0day.ch%3A1337&tr=udp%3A%2F%2Fopen.demonii.com%3A1337&tr=udp%3A%2F%2Ftracker.coppersurfer.tk%3A6969&tr=udp%3A%2F%2Fexodus.desync.com%3A6969","uploader":"SharkillerARG","categoryP":"video","categoryS":"hd___tv_shows","size":"2013667177","seeders":"13","leechers":"7","description":"P&#xE1;gina Web: https://www.cont.ar/serie/d259ad2c-fde6-45db-9a23-f8ce1f3b2faa\r\n\r\nGeneral\r\nUnique ID                   : 208613046189799875589784585864249839565 (0x9CF1694754C7B795D60FFA021B5B8FCD)\r\nComplete name               : El.Marginal.S02E06.1080p.WEB.H264.AAC.mkv\r\nFormat                      : Matroska\r\nFormat version              : Version 4 / Version 2\r\nFile size                   : 1.88 GiB\r\nDuration                    : 55 min 30 s\r\nOverall bit rate            : 4 836 kb/s\r\nEncoded date                : UTC 2018-08-22 03:43:34\r\nWriting application         : mkvmerge v25.0.0 (&apos;Prog Noir&apos;) 64-bit\r\nWriting library             : libebml v1.3.6 + libmatroska v1.4.9\r\n\r\nVideo\r\nID                          : 1\r\nFormat                      : AVC\r\nFormat/Info                 : Advanced Video Codec\r\nFormat profile              : High@L5\r\nFormat settings             : CABAC / 5 Ref Frames\r\nFormat settings, CABAC      : Yes\r\nFormat settings, ReFrames   : 5 frames\r\nCodec ID                    : V_MPEG4/ISO/AVC\r\nDuration                    : 55 min 30 s\r\nBit rate                    : 4 709 kb/s\r\nWidth                       : 1 920 pixels\r\nHeight                      : 1 080 pixels\r\nDisplay aspect ratio        : 16:9\r\nFrame rate mode             : Constant\r\nFrame rate                  : 25.000 FPS\r\nColor space                 : YUV\r\nChroma subsampling          : 4:2:0\r\nBit depth                   : 8 bits\r\nScan type                   : Progressive\r\nBits/(Pixel*Frame)          : 0.091\r\nStream size                 : 1.83 GiB (97%)\r\nLanguage                    : Spanish\r\nDefault                     : Yes\r\nForced                      : No\r\n\r\nAudio\r\nID                          : 2\r\nFormat                      : AAC\r\nFormat/Info                 : Advanced Audio Codec\r\nFormat profile              : LC\r\nCodec ID                    : A_AAC-2\r\nDuration                    : 55 min 30 s\r\nBit rate                    : 125 kb/s\r\nChannel(s)                  : 2 channels\r\nChannel positions           : Front: L R\r\nSampling rate               : 48.0 kHz\r\nFrame rate                  : 46.875 FPS (1024 SPF)\r\nCompression mode            : Lossy\r\nStream size                 : 49.8 MiB (3%)\r\nLanguage                    : Spanish\r\nDefault                     : Yes\r\nForced                      : No","last_updated":"2018-08-22T12:15:23.581Z","parsed":{"xt":"urn:btih:f9230ef684dc344cdf2c8352a53866f4c090726a","dn":"El Marginal S02E06 WEB 1080p H264 AAC","tr":["udp://exodus.desync.com:6969","udp://open.demonii.com:1337","udp://tracker.coppersurfer.tk:6969","udp://tracker.leechers-paradise.org:6969","udp://zer0day.ch:1337"],"infoHash":"f9230ef684dc344cdf2c8352a53866f4c090726a","infoHashBuffer":{"type":"Buffer","data":[249,35,14,246,132,220,52,76,223,44,131,82,165,56,102,244,192,144,114,106]},"name":"El Marginal S02E06 WEB 1080p H264 AAC","announce":["udp://exodus.desync.com:6969","udp://open.demonii.com:1337","udp://tracker.coppersurfer.tk:6969","udp://tracker.leechers-paradise.org:6969","udp://zer0day.ch:1337"],"urlList":[]}}